# xmcd CD database file
#
# Track frame offsets:
#	150
#	18911
#	38363
#	58836
#	79765
#	98868
#	117210
#	132260
#	155752
#	172082
#	189715
#	211204
#	229420
#	247691
#	259441
#	280273
#	309731
#	326958
#
# Disc length: 4697 seconds
#
# Revision: 0
# Processed by: cddbd v1.5.2PL0 Copyright (c) Steve Scherf et al.
# Submitted via: CDex 1.51
#
DISCID=04125712
DTITLE=Santana - All that I am
DYEAR=2005
DGENRE=Jazz
TTITLE0=Hermes
TTITLE1=El Fuego
TTITLE2=I'm Feeling You
TTITLE3=My Man
TTITLE4=Just Feel Better
TTITLE5=I Am Somebody
TTITLE6=Con Santana
TTITLE7=Twisted
TTITLE8=Trinity
TTITLE9=Cry Baby Cry
TTITLE10=Brown Skin Girl
TTITLE11=I Don't Wanna Lose Your Love
TTITLE12=Da Tu Amor
TTITLE13=Persuasion
TTITLE14=You Just Don't Care
TTITLE15=Black Magic Woman
TTITLE16=Why Don't You and I
TTITLE17=Foo Foo
EXTD=YEAR: 2005
EXTT0=
EXTT1=
EXTT2=
EXTT3=
EXTT4=
EXTT5=
EXTT6=
EXTT7=
EXTT8=
EXTT9=
EXTT10=
EXTT11=
EXTT12=
EXTT13=
EXTT14=
EXTT15=
EXTT16=
EXTT17=
PLAYORDER=
